# xmcd
#
# Track frame offsets: 
#        187
#        23654
#        39072
#        58269
#        77529
#        101384
#        120972
#        137609
#        156382
#        172164
#        186582
#        201724
#        217684
#        238609
#        259959
#        285847
#        306672
#
# Disc length: 4443 seconds
#
# Revision: 4
# Processed by: cddbd v1.5.2PL0 Copyright (c) Steve Scherf et al.
# Submitted via: ExactAudioCopy v0.95b4
#
DISCID=ee115911
DTITLE=W.A.S.P - The Last Command (Reissue 1998)
DYEAR=1985
DGENRE=Heavy Metal
TTITLE0=Wild Child
TTITLE1=Ballcrusher
TTITLE2=Fistful Of Diamonds
TTITLE3=Jack Action
TTITLE4=Widowmaker
TTITLE5=Blind In Texas
TTITLE6=Cries In The Night
TTITLE7=The Last Command
TTITLE8=Running Wild In The Streets
TTITLE9=Sex Drive
TTITLE10=Mississippi Queen (Mountain Cover) 
TTITLE11=Savage
TTITLE12=On Your Knees (Live)
TTITLE13=Hellion (Live)
TTITLE14=Sleeping (In The Fire) (Live)
TTITLE15=Animal (Fuck Like A Beast) (Live)
TTITLE16=I Wanna Be Somebody (Live)
EXTD=YEAR: 1985
EXTT0=
EXTT1=
EXTT2=
EXTT3=
EXTT4=
EXTT5=
EXTT6=
EXTT7=
EXTT8=
EXTT9=
EXTT10=
EXTT11=
EXTT12=
EXTT13=
EXTT14=
EXTT15=
EXTT16=
PLAYORDER=
